Coordinates
version=1
nRows=8
nColumns=63
inDegrees=yes

Units are S.I. units (second, meters, Newtons, ...)
If the header above contains a line with 'inDegrees', this indicates whether rotational values are in degrees (yes) or radians (no).

endheader
time	pelvis_tilt	pelvis_list	pelvis_rotation	pelvis_tx	pelvis_ty	pelvis_tz	hip_flexion_r	hip_adduction_r	hip_rotation_r	knee_angle_r	knee_angle_r_beta	ankle_angle_r	subtalar_angle_r	mtp_angle_r	hip_flexion_l	hip_adduction_l	hip_rotation_l	knee_angle_l	knee_angle_l_beta	ankle_angle_l	subtalar_angle_l	mtp_angle_l	L5_S1_Flex_Ext	L5_S1_Lat_Bending	L5_S1_axial_rotation	L4_L5_Flex_Ext	L4_L5_Lat_Bending	L4_L5_axial_rotation	L3_L4_Flex_Ext	L3_L4_Lat_Bending	L3_L4_axial_rotation	L2_L3_Flex_Ext	L2_L3_Lat_Bending	L2_L3_axial_rotation	L1_L2_Flex_Ext	L1_L2_Lat_Bending	L1_L2_axial_rotation	L1_T12_Flex_Ext	L1_T12_Lat_Bending	L1_T12_axial_rotation	Abs_r3	Abs_r2	Abs_r1	Abs_t1	Abs_t2	neck_flexion	neck_bending	neck_rotation	arm_flex_r	arm_add_r	arm_rot_r	elbow_flex_r	pro_sup_r	wrist_flex_r	wrist_dev_r	arm_flex_l	arm_add_l	arm_rot_l	elbow_flex_l	pro_sup_l	wrist_flex_l	wrist_dev_l
15.490909	-34.294344	-14.894599	18.009052	0.118595	0.914965	0.829767	44.101304	-20.227277	-25.265238	28.420742	0.496036	9.588836	12.219923	0.000000	74.920546	2.907571	19.583741	48.291476	0.842845	22.720312	19.801107	0.000000	0.817048	-0.581519	-0.757724	1.517341	-0.773420	-0.805082	1.342329	-1.413905	-0.805082	0.933805	-1.413905	-0.663008	0.758711	-1.185834	-0.615651	0.466862	-0.900773	-0.568293	5.836096	-6.578259	-4.214233	0.000000	0.000000	27.889486	8.829732	40.312306	133.287968	31.885808	185.056509	-0.279825	2.938316	-17.252312	-3.335300	136.374876	-19.105293	247.750677	5.290777	29.829859	-9.858217	4.616858
15.509091	-34.264789	-14.810662	17.447452	0.117033	0.916756	0.829289	44.082897	-19.985846	-25.467480	28.070379	0.489921	9.134087	12.420412	0.000000	74.538666	2.746796	20.287723	47.718415	0.832843	22.573244	19.796440	0.000000	0.847948	-0.538629	-1.149754	1.574724	-0.716376	-1.221614	1.393093	-1.309621	-1.221614	0.969119	-1.309621	-1.006035	0.787404	-1.098371	-0.934175	0.484517	-0.834336	-0.862316	6.056805	-6.093074	-6.394587	0.000000	0.000000	28.343054	8.296604	41.509129	132.232457	33.703246	191.702423	-1.783582	-1.463823	-22.282214	-5.703901	135.577239	-20.900049	273.510123	5.119910	25.799827	-10.082630	6.294826
15.527273	-34.038460	-14.702872	16.651432	0.114743	0.918155	0.829679	44.198420	-19.608278	-25.556164	28.146136	0.491243	9.128957	12.874198	0.000000	74.211414	2.130609	20.536311	47.445680	0.828083	22.532960	19.791552	0.000000	0.860952	-0.473383	-1.591712	1.598874	-0.629599	-1.691194	1.414458	-1.150983	-1.691194	0.983982	-1.150983	-1.392748	0.799480	-0.965323	-1.293266	0.491948	-0.733270	-1.193784	6.149695	-5.355003	-8.852625	0.000000	0.000000	28.463592	7.335780	42.626477	130.994735	35.171437	195.283620	-2.332138	-4.132429	-27.928703	-8.110518	134.996236	-23.814932	299.132265	5.769455	22.533945	-10.169973	7.549659
15.545455	-33.640021	-14.626664	15.642404	0.111758	0.918998	0.830776	44.437322	-19.100710	-25.598546	28.619782	0.499509	9.483767	13.569967	0.000000	74.012690	1.074363	20.360694	47.517997	0.829345	22.590852	19.786895	0.000000	0.859231	-0.380754	-2.075245	1.595677	-0.506403	-2.204947	1.411630	-0.925766	-2.204947	0.982015	-0.925766	-1.815839	0.797882	-0.776434	-1.686136	0.490964	-0.589788	-1.556433	6.137399	-4.307167	-11.541888	0.000000	0.000000	28.296512	5.902427	43.630350	129.792754	36.274855	195.567845	-2.185038	-4.883911	-34.005109	-10.520499	134.900363	-27.651447	324.376584	6.946200	20.234117	-10.278606	8.385124
15.563636	-33.117137	-14.660467	14.455373	0.108198	0.919123	0.832339	44.777799	-18.465138	-25.708430	29.430175	0.513653	10.055251	14.479196	0.000000	74.030241	-0.385455	19.832526	47.960510	0.837069	22.751712	19.782149	0.000000	0.847445	-0.254550	-2.582417	1.573791	-0.338551	-2.743818	1.392268	-0.618912	-2.743818	0.968545	-0.618912	-2.259615	0.786938	-0.519078	-2.098214	0.484230	-0.394298	-1.936813	6.053217	-2.879519	-14.362628	0.000000	0.000000	27.944923	3.974638	44.470266	128.829900	37.013064	192.399023	-1.616163	-3.476457	-40.272005	-12.896931	135.219860	-32.194187	347.935586	8.486042	19.249744	-10.284888	9.058480
15.581818	-32.554973	-14.854720	13.102160	0.104316	0.918377	0.834216	45.226992	-17.705790	-25.976062	30.511164	0.532520	10.690469	15.525577	0.000000	74.352844	-2.218782	19.006546	48.778671	0.851348	23.041316	19.776828	0.000000	0.834254	-0.095588	-3.091159	1.549293	-0.127131	-3.284357	1.370595	-0.232412	-3.284357	0.953469	-0.232412	-2.704764	0.774688	-0.194922	-2.511567	0.476693	-0.148065	-2.318369	5.958991	-1.081305	-17.192100	0.000000	0.000000	27.498715	1.663239	45.124685	128.274211	37.361873	186.033871	-0.779816	-0.983165	-46.732878	-15.265505	136.265382	-37.233435	370.101143	10.220076	19.212600	-10.441762	9.487066
15.600000	-32.020392	-15.276505	11.633567	0.100332	0.916670	0.836113	45.751250	-16.832951	-26.518739	31.778773	0.554644	11.227739	16.582733	0.000000	75.045894	-4.334647	18.011641	49.956441	0.871904	23.449582	19.769910	0.000000	0.824080	0.097557	-3.575585	1.530398	0.129750	-3.799059	1.353881	0.237199	-3.799059	0.941841	0.237199	-3.128637	0.765240	0.198937	-2.905163	0.470879	0.151115	-2.681689	5.886319	1.103579	-19.886331	0.000000	0.000000	27.092111	-0.901687	45.548325	128.263999	37.260146	177.378576	0.308774	1.038512	-53.054921	-17.740630	137.703706	-42.553520	388.701956	12.004671	19.972872	-10.704795	9.764833
15.618182	-31.546524	-15.930981	10.101151	0.096456	0.914044	0.837848	46.297171	-15.883922	-27.400189	33.158250	0.578721	11.527510	17.541119	0.000000	76.095213	-6.622718	16.976282	51.448383	0.897944	23.925417	19.761153	0.000000	0.818967	0.317459	-4.018570	1.520904	0.422220	-4.269730	1.345481	0.771869	-4.269730	0.935997	0.771869	-3.516248	0.760493	0.647362	-3.265088	0.467958	0.491743	-3.013927	5.849800	3.591156	-22.350078	0.000000	0.000000	26.810278	-3.524604	45.528038	128.563914	37.161663	174.452280	0.119241	1.002319	-58.803961	-20.138053	139.615285	-47.249750	411.227006	12.220119	16.383877	-10.608465	9.482916
